<svg width="20" height="20" viewBox="0 0 20 20" fill="none" xmlns="http://www.w3.org/2000/svg">
<path d="M17.5 7.49992L17.9856 8.37408C18.3031 8.19771 18.5 7.86309 18.5 7.49992C18.5 7.13675 18.3031 6.80213 17.9856 6.62576L17.5 7.49992ZM10 11.6666L9.51436 12.5407C9.81638 12.7085 10.1836 12.7085 10.4856 12.5407L10 11.6666ZM2.5 7.49992L2.01436 6.62576C1.69689 6.80213 1.5 7.13675 1.5 7.49992C1.5 7.86309 1.69689 8.19771 2.01436 8.37408L2.5 7.49992ZM10 3.33325L10.4856 2.45909C10.1836 2.2913 9.81638 2.2913 9.51436 2.45909L10 3.33325ZM6.66667 10.4166L6.18102 9.54243C5.86356 9.7188 5.66667 10.0534 5.66667 10.4166H6.66667ZM5.66667 16.6665C5.66667 17.2188 6.11438 17.6665 6.66667 17.6665C7.21895 17.6665 7.66667 17.2188 7.66667 16.6665H5.66667ZM10.4856 9.43889C10.9684 9.17068 11.1424 8.56187 10.8742 8.07909C10.6059 7.59631 9.99714 7.42236 9.51436 7.69058L10.4856 9.43889ZM15.1326 8.81513L16.0622 8.44649C15.9561 8.17902 15.7399 7.9702 15.469 7.87341C15.198 7.77662 14.8985 7.80124 14.6469 7.94098L15.1326 8.81513ZM15.687 14.214L15.7838 15.2093C16.232 15.1657 16.5958 14.8279 16.6724 14.3842L15.687 14.214ZM10 16.7129L9.33309 17.458C9.71277 17.7978 10.2872 17.7978 10.6669 17.458L10 16.7129ZM4.31301 14.214L3.32761 14.3842C3.40426 14.8279 3.76804 15.1657 4.21624 15.2093L4.31301 14.214ZM4.8674 8.81512L5.35304 7.94097C5.10151 7.80123 4.80198 7.77661 4.53101 7.8734C4.26004 7.97019 4.0439 8.17901 3.93782 8.44648L4.8674 8.81512ZM17.0144 6.62576L9.51436 10.7924L10.4856 12.5407L17.9856 8.37408L17.0144 6.62576ZM10.4856 10.7924L2.98564 6.62576L2.01436 8.37408L9.51436 12.5407L10.4856 10.7924ZM2.98564 8.37408L10.4856 4.20741L9.51436 2.45909L2.01436 6.62576L2.98564 8.37408ZM9.51436 4.20741L17.0144 8.37408L17.9856 6.62576L10.4856 2.45909L9.51436 4.20741ZM5.66667 10.4166V16.6665H7.66667V10.4166H5.66667ZM9.51436 7.69058L6.18102 9.54243L7.15231 11.2907L10.4856 9.43889L9.51436 7.69058ZM14.6469 7.94098L9.51436 10.7924L10.4856 12.5407L15.6182 9.68929L14.6469 7.94098ZM16.8333 12.4999C16.8333 11.0703 16.5601 9.70216 16.0622 8.44649L14.203 9.18378C14.6095 10.2087 14.8333 11.3269 14.8333 12.4999H16.8333ZM16.6724 14.3842C16.7783 13.7713 16.8333 13.1416 16.8333 12.4999H14.8333C14.8333 13.027 14.7881 13.5428 14.7016 14.0438L16.6724 14.3842ZM10.6669 17.458C12.0546 16.216 13.8276 15.3995 15.7838 15.2093L15.5902 13.2187C13.1962 13.4514 11.0271 14.4515 9.33309 15.9677L10.6669 17.458ZM4.21624 15.2093C6.17238 15.3995 7.9454 16.216 9.33309 17.458L10.6669 15.9677C8.97287 14.4516 6.80381 13.4514 4.40979 13.2187L4.21624 15.2093ZM3.16667 12.4998C3.16667 13.1416 3.22173 13.7712 3.32761 14.3842L5.29842 14.0437C5.21188 13.5428 5.16667 13.027 5.16667 12.4998H3.16667ZM3.93782 8.44648C3.43987 9.70214 3.16667 11.0703 3.16667 12.4998H5.16667C5.16667 11.3269 5.39054 10.2086 5.79697 9.18376L3.93782 8.44648ZM10.4856 10.7924L5.35304 7.94097L4.38175 9.68928L9.51436 12.5407L10.4856 10.7924Z" fill="currentColor"/>
</svg>
